<svg xmlns="http://www.w3.org/2000/svg" viewBox="0 0 64 64">
  <defs>
    <linearGradient id="g" x1="0" y1="0" x2="1" y2="1">
      <stop offset="0" stop-color="#33a465"/>
      <stop offset="1" stop-color="#1d6a43"/>
    </linearGradient>
  </defs>
  <rect width="64" height="64" rx="14" fill="url(#g)"/>
  <rect x="9" y="9" width="46" height="46" rx="8" fill="#fff"/>
  <g fill="#111827">
    <rect x="13" y="13" width="10" height="10" rx="2"/>
    <rect x="41" y="13" width="10" height="10" rx="2"/>
    <rect x="13" y="41" width="10" height="10" rx="2"/>
  </g>
  <g fill="#fff">
    <rect x="15.5" y="15.5" width="5" height="5" rx="1"/>
    <rect x="43.5" y="15.5" width="5" height="5" rx="1"/>
    <rect x="15.5" y="43.5" width="5" height="5" rx="1"/>
  </g>
  <g fill="#111827">
    <rect x="27" y="13" width="2.5" height="2.5" rx="0.5"/>
    <rect x="32" y="13" width="2.5" height="2.5" rx="0.5"/>
    <rect x="29.5" y="17" width="2.5" height="2.5" rx="0.5"/>
    <rect x="13" y="27" width="2.5" height="2.5" rx="0.5"/>
    <rect x="13" y="32" width="2.5" height="2.5" rx="0.5"/>
    <rect x="17" y="29.5" width="2.5" height="2.5" rx="0.5"/>
    <rect x="27" y="27" width="2.5" height="2.5" rx="0.5"/>
    <rect x="32" y="29.5" width="2.5" height="2.5" rx="0.5"/>
  </g>
  <polygon points="43,28 48.5,31 43,34 37.5,31" fill="#238550"/>
  <rect x="41" y="31" width="4" height="3.5" rx="1" fill="#238550"/>
  <circle cx="43" cy="31.5" r="1" fill="#57bf83"/>
</svg>